<?xml version="1.0" standalone="no"?>
<!DOCTYPE svg PUBLIC "-//W3C//DTD SVG 20010904//EN"
 "http://www.w3.org/TR/2001/REC-SVG-20010904/DTD/svg10.dtd">
<svg version="1.0" xmlns="http://www.w3.org/2000/svg"
 width="3623.000000pt" height="3623.000000pt" viewBox="0 0 3623.000000 3623.000000"
 preserveAspectRatio="xMidYMid meet">
<metadata>
Created by potrace 1.14, written by Peter Selinger 2001-2017
</metadata>
<g transform="translate(0.000000,3623.000000) scale(0.100000,-0.100000)"
fill="#000000" stroke="none">
<path d="M18040 36219 c-433 -6 -687 -16 -1335 -53 l-800 -45 -1005 -126
-1005 -125 -700 -131 c-1005 -187 -1144 -215 -1295 -260 -74 -22 -520 -160
-990 -306 l-855 -265 -835 -353 -835 -354 -865 -474 -865 -474 -635 -433
c-628 -430 -639 -438 -1070 -788 -426 -346 -445 -364 -933 -835 -531 -513
-501 -481 -986 -1072 -207 -251 -668 -871 -794 -1065 -134 -209 -522 -956
-610 -1176 -141 -350 -205 -580 -311 -1114 -29 -146 -52 -494 -43 -659 10
-184 58 -433 140 -717 62 -215 92 -300 172 -484 89 -205 108 -239 235 -430
121 -181 169 -241 378 -476 131 -148 253 -282 271 -298 17 -17 31 -35 30 -40
0 -6 -65 -69 -142 -141 -428 -393 -666 -693 -863 -1089 -101 -203 -130 -292
-179 -541 -37 -189 -37 -191 -30 -360 l7 -170 50 -130 c27 -71 88 -204 135
-294 81 -156 92 -171 202 -288 106 -113 129 -132 266 -217 83 -52 162 -99 175
-105 14 -6 167 -45 340 -87 l315 -77 315 8 c173 4 392 10 485 14 94 4 171 7
172 6 1 0 -146 -112 -327 -249 -300 -225 -348 -265 -539 -452 -208 -204 -211
-207 -294 -347 -158 -266 -176 -302 -233 -456 -48 -134 -58 -172 -71 -290 -15
-133 -15 -137 12 -345 22 -171 55 -334 172 -856 l145 -644 103 -271 c135 -356
326 -742 487 -984 61 -91 126 -185 145 -209 l35 -42 -29 -34 c-15 -19 -69 -82
-120 -140 -90 -103 -200 -258 -261 -366 -42 -75 -117 -320 -143 -465 -18 -101
-20 -140 -14 -250 6 -120 10 -139 50 -245 23 -63 102 -251 173 -417 94 -218
149 -361 195 -511 64 -206 65 -210 72 -358 3 -82 8 -159 11 -171 4 -20 -15
-28 -268 -112 -263 -88 -279 -95 -452 -193 -123 -71 -204 -125 -262 -176 -145
-127 -274 -292 -274 -352 0 -16 -45 -88 -121 -195 -108 -151 -138 -203 -268
-465 -166 -335 -204 -427 -290 -696 -51 -164 -70 -248 -135 -600 -64 -348 -80
-456 -105 -724 l-30 -315 9 -390 c8 -343 13 -429 45 -710 35 -309 39 -333 126
-705 88 -371 96 -399 230 -775 128 -359 149 -410 265 -640 254 -502 242 -483
559 -903 l290 -385 317 -307 c289 -280 348 -332 686 -601 l370 -294 424 -256
c233 -141 448 -270 478 -287 30 -17 345 -154 700 -305 l645 -276 790 -240 790
-241 830 -170 c828 -171 832 -171 1605 -285 l775 -114 1040 -91 c1039 -90
1041 -90 2265 -150 674 -33 1524 -71 1890 -84 366 -14 717 -28 780 -31 63 -4
750 -6 1525 -5 l1410 0 1235 61 1235 60 955 89 c525 50 999 95 1053 101 53 5
551 86 1105 180 l1007 169 910 231 910 231 765 269 765 269 620 302 620 302
485 296 485 296 435 360 435 361 264 294 c252 280 272 306 432 546 166 248
172 259 345 625 l176 373 93 315 c90 306 94 325 153 690 49 297 68 449 92 734
l31 358 -10 502 c-10 460 -14 535 -50 911 -36 368 -147 1279 -187 1525 -37
236 -209 950 -249 1037 -13 28 -61 109 -108 180 -67 101 -117 162 -243 291
l-159 163 -180 108 -180 107 -6 750 c-4 485 -10 772 -17 814 -7 36 -28 117
-48 180 -45 146 -249 598 -280 625 l-24 20 112 69 c205 126 613 430 752 560
136 128 240 256 256 315 5 20 18 118 29 219 l20 183 -29 817 c-32 884 -52
1246 -74 1332 -16 63 -322 744 -359 799 -24 36 -454 586 -510 651 -44 52 -170
181 -289 297 -74 71 -100 103 -89 105 9 3 102 -3 206 -13 105 -9 309 -22 455
-29 252 -12 277 -12 500 10 l235 22 217 83 216 82 159 136 158 136 111 208
112 208 46 270 c26 149 50 284 52 301 8 44 -74 527 -101 599 -12 33 -75 176
-138 317 l-116 257 -250 363 c-220 318 -272 387 -427 561 l-176 197 110 138
c60 75 193 268 297 427 l189 290 129 303 129 303 75 377 74 377 -6 400 -6 400
-84 395 -83 395 -210 490 -209 490 -294 475 -294 475 -334 415 c-328 408 -341
422 -726 815 -896 913 -757 785 -1505 1387 -814 654 -807 649 -894 707 -39 26
-369 231 -733 455 l-662 407 -1013 480 -1013 480 -1130 369 -1130 369 -1290
270 c-897 187 -1334 274 -1435 285 -80 9 -485 55 -900 102 -415 47 -836 89
-935 94 -163 8 -1041 44 -1325 53 -63 2 -356 1 -650 -4z m975 -649 c727 -21
1371 -65 2050 -140 3926 -434 7379 -1808 9880 -3931 328 -278 581 -514 966
-898 387 -387 567 -583 849 -921 776 -931 1261 -1829 1429 -2643 56 -271 66
-377 65 -677 0 -309 -15 -434 -79 -697 -211 -856 -817 -1661 -1825 -2422 -225
-170 -285 -211 -338 -231 -136 -52 -852 -265 -1357 -404 -2867 -789 -6004
-1254 -9375 -1391 -1348 -54 -2861 -54 -4245 0 -3047 120 -6179 494 -9180
1096 -944 189 -2097 461 -2520 594 -777 244 -1441 564 -2007 968 -221 158
-348 266 -538 456 -476 479 -741 982 -837 1591 -27 174 -25 555 5 744 156 990
745 2097 1717 3231 1395 1627 3399 3054 5635 4012 1436 616 2786 999 4570
1298 1707 286 3493 413 5135 365z m14731 -12585 c420 -515 655 -982 696 -1387
21 -203 -16 -395 -109 -563 -49 -89 -167 -210 -248 -252 -271 -142 -607 -147
-1475 -23 -410 59 -516 70 -725 77 -221 6 -322 -7 -466 -61 -133 -50 -238
-118 -356 -230 -227 -216 -364 -443 -659 -1093 -205 -452 -321 -672 -458 -866
-117 -166 -259 -310 -379 -380 -249 -148 -653 -154 -1205 -17 -222 55 -401
110 -932 285 -526 173 -644 209 -850 260 -223 54 -370 76 -540 82 -306 10
-571 -53 -890 -212 -234 -117 -397 -224 -865 -570 -562 -414 -788 -561 -1140
-738 -277 -138 -495 -218 -696 -253 -137 -24 -368 -15 -506 20 -199 50 -421
152 -843 386 -802 447 -1302 654 -1974 820 -387 96 -669 132 -1014 131 -717
-3 -1295 -171 -2188 -639 -607 -317 -768 -396 -994 -485 -357 -140 -613 -195
-946 -204 -383 -11 -666 50 -994 213 -289 144 -448 260 -1055 774 -620 525
-1001 716 -1534 771 -141 15 -518 6 -680 -15 -296 -39 -693 -125 -1126 -242
-798 -215 -815 -220 -1105 -286 -316 -72 -488 -64 -682 32 -303 148 -561 471
-964 1208 -271 494 -317 573 -437 752 -247 369 -452 504 -872 577 -145 25
-589 24 -920 -2 -305 -24 -796 -27 -920 -6 -350 58 -550 182 -678 419 -154
287 -85 671 199 1105 155 237 323 434 598 705 l197 194 27 -18 c404 -265 592
-374 922 -531 418 -200 723 -317 1240 -478 171 -53 985 -255 1450 -359 3337
-749 7089 -1224 10620 -1346 1196 -41 2623 -41 3780 0 4036 143 7792 758
11095 1815 l200 65 140 98 c260 182 515 383 759 598 89 78 172 154 186 169
l25 27 88 -93 c49 -52 140 -157 203 -234z m-15401 -7840 c998 -410 2362 -791
3755 -1049 1335 -247 2791 -403 4232 -452 l196 -7 -81 -65 c-308 -245 -719
-651 -1046 -1035 -94 -110 -177 -174 -268 -207 -88 -32 -249 -25 -373 15 -177
57 -378 159 -715 361 -215 129 -454 251 -550 283 -96 31 -239 39 -324 17 -112
-29 -188 -73 -276 -161 -125 -126 -209 -307 -260 -559 -41 -207 -50 -315 -50
-606 1 -435 47 -816 160 -1325 41 -184 69 -289 198 -735 117 -403 171 -745
172 -1075 0 -222 -12 -320 -56 -460 -24 -75 -80 -189 -107 -217 -8 -8 -153
-26 -557 -67 l-289 -30 -60 32 c-216 115 -372 415 -445 852 -66 400 -75 727
-57 2070 9 706 5 824 -34 1026 -81 422 -316 704 -665 801 -69 19 -106 22 -265
22 -221 1 -314 -16 -566 -99 -149 -50 -258 -94 -618 -254 -131 -59 -139 -61
-162 -46 -64 42 -208 293 -467 815 -180 363 -219 430 -311 528 -472 505 -1330
267 -1924 -533 -253 -342 -414 -739 -486 -1205 -43 -279 -57 -456 -63 -830
-11 -675 47 -1401 202 -2540 30 -218 152 -1097 161 -1155 58 -398 69 -548 55
-783 -16 -277 -61 -502 -148 -742 -180 -500 -492 -868 -828 -976 -100 -32
-237 -36 -330 -10 -143 41 -312 160 -394 277 -201 286 -259 878 -171 1749 63
614 170 1238 425 2455 197 943 254 1270 276 1595 18 266 0 554 -46 757 -109
476 -377 788 -759 883 -109 27 -292 30 -402 6 -273 -59 -458 -187 -557 -387
-90 -180 -125 -376 -157 -874 -30 -462 -43 -594 -76 -760 -58 -289 -164 -456
-320 -505 -36 -11 -84 -20 -105 -20 -129 0 -250 311 -353 910 -70 407 -89 515
-112 630 -71 351 -149 586 -255 762 -204 339 -470 525 -984 688 -159 51 -189
59 -767 204 -621 156 -786 206 -1038 313 -116 50 -332 158 -395 198 l-40 26
90 -7 c147 -12 1336 -8 1650 5 1038 42 1868 115 2800 247 1797 254 3493 728
4570 1277 72 37 137 65 145 62 8 -2 110 -42 225 -90z m13424 -932 c-140 -192
-478 -551 -712 -756 -830 -728 -1857 -1302 -2784 -1557 -592 -162 -1963 -355
-3458 -485 -487 -42 -1261 -98 -1485 -107 l-65 -3 -8 95 c-10 124 -2 597 12
680 15 88 42 199 56 233 l12 28 85 -45 c47 -25 182 -102 299 -172 255 -152
574 -315 719 -368 330 -120 613 -143 868 -70 242 70 387 177 656 484 204 234
626 659 786 791 348 288 634 467 928 579 205 78 300 97 540 110 1326 68 2448
253 3377 558 116 38 212 68 213 66 2 -1 -15 -29 -39 -61z m-26429 -103 c592
-159 1382 -293 2186 -373 l231 -23 64 -69 c425 -464 1035 -814 1789 -1028 107
-31 420 -112 695 -181 545 -137 727 -192 880 -266 294 -142 397 -306 499 -800
19 -90 34 -165 33 -166 -1 -1 -101 13 -222 31 -2601 394 -4507 1086 -5690
2066 -139 115 -444 423 -544 549 -77 96 -202 274 -229 327 l-12 22 68 -20 c37
-11 150 -42 252 -69z m12573 -1004 c18 -7 47 -30 65 -50 18 -21 123 -218 234
-439 299 -599 380 -731 552 -902 150 -148 271 -210 437 -222 138 -10 234 17
549 157 455 202 644 263 825 264 88 1 105 -2 142 -23 123 -70 173 -273 173
-697 l0 -194 -2126 0 -2127 0 7 133 c16 307 58 614 112 817 125 464 451 900
814 1090 142 73 268 98 343 66z m-3596 -1307 c94 -46 177 -184 218 -365 22
-96 53 -379 43 -389 -4 -4 -509 49 -575 60 -31 6 -33 8 -33 50 0 73 29 373 46
475 9 52 23 108 33 125 35 61 182 86 268 44z m19056 -413 c59 -80 121 -211
144 -302 25 -104 23 -285 -6 -394 -173 -652 -956 -1321 -2251 -1920 -1253
-581 -3029 -1088 -5174 -1480 -2912 -531 -6088 -713 -8789 -503 -119 9 -221
19 -226 22 -5 3 -11 35 -12 71 l-4 65 30 -2 c17 -1 381 -5 810 -9 1339 -12
2582 34 3841 140 248 22 287 23 340 11 130 -30 276 -45 436 -45 257 0 420 36
617 135 l106 54 210 26 c1742 217 3487 591 4950 1060 2600 834 4074 1560 4631
2281 194 251 293 523 294 802 0 28 1 52 3 52 2 0 24 -29 50 -64z m-30258 -168
c0 -132 19 -170 149 -295 105 -101 149 -140 301 -265 1108 -910 2645 -1745
4305 -2338 1494 -534 3070 -883 4780 -1060 419 -43 1029 -90 1178 -90 51 0 72
-4 72 -12 0 -18 -32 -292 -35 -296 -1 -1 -157 9 -346 23 -3981 294 -7439 1361
-9677 2987 -304 220 -532 410 -761 633 -238 232 -411 442 -411 501 0 28 67 97
145 149 54 36 280 155 294 155 3 0 6 -42 6 -92z m-785 -895 c52 -70 357 -373
505 -502 297 -260 660 -534 1025 -773 144 -95 413 -263 480 -301 19 -10 91
-52 160 -92 388 -226 1051 -549 1640 -800 622 -265 1556 -583 2345 -798 1564
-427 3295 -713 5108 -844 l237 -17 0 -191 c0 -488 82 -906 237 -1215 178 -352
553 -631 958 -711 103 -21 359 -18 463 5 422 91 802 372 1091 806 205 309 368
729 433 1116 l23 137 95 -7 c52 -4 183 -13 290 -21 671 -50 1270 -69 2175 -69
762 0 1109 8 1765 39 2188 106 4391 409 6505 896 2490 574 4333 1342 5392
2246 132 113 371 354 448 451 41 54 51 61 57 45 8 -21 61 -447 83 -673 75
-771 82 -1509 20 -2125 -105 -1033 -431 -1820 -1056 -2546 -547 -635 -1372
-1236 -2419 -1759 -449 -225 -783 -370 -1256 -546 -230 -85 -694 -239 -899
-299 -88 -26 -212 -61 -275 -80 -162 -47 -270 -75 -547 -144 -3180 -796 -7566
-1053 -13043 -766 -2092 110 -3292 222 -4540 426 -2110 343 -3809 894 -5070
1642 -181 108 -563 366 -714 482 -1093 845 -1770 1866 -2095 3160 -328 1304
-247 2577 232 3660 57 129 100 215 107 215 3 0 21 -22 40 -47z"/>
<path d="M20095 33844 c-175 -36 -373 -178 -448 -321 -51 -98 -71 -174 -71
-273 0 -227 125 -405 360 -511 190 -86 447 -78 649 21 213 104 339 290 337
496 -2 154 -57 282 -171 394 -85 84 -157 130 -258 165 -131 46 -268 56 -398
29z m480 -329 c135 -29 247 -102 286 -189 12 -27 19 -65 19 -111 0 -150 -104
-276 -277 -334 -168 -56 -395 -40 -554 40 -61 31 -146 116 -176 177 -56 114
-27 221 83 305 60 45 165 90 259 110 91 20 271 21 360 2z"/>
<path d="M15351 33525 c-112 -121 -166 -249 -166 -390 0 -76 4 -99 26 -146 52
-110 181 -204 334 -244 149 -39 383 -27 565 30 191 60 388 194 457 312 57 98
78 234 51 327 -16 53 -90 127 -142 143 -22 7 -42 11 -43 9 -2 -2 8 -25 22 -51
29 -55 33 -126 11 -178 -7 -18 -36 -53 -64 -78 -135 -121 -412 -200 -712 -202
-125 -1 -139 0 -191 25 -61 28 -91 62 -108 123 -14 51 -14 169 0 274 6 45 9
84 7 87 -3 2 -24 -16 -47 -41z"/>
<path d="M12905 32045 c-231 -43 -433 -206 -507 -411 -26 -71 -35 -227 -19
-304 43 -198 226 -371 457 -430 95 -25 269 -27 364 -5 312 73 515 292 514 555
-2 294 -227 537 -554 596 -92 16 -163 16 -255 -1z m453 -330 c200 -40 318
-153 316 -300 -3 -169 -125 -297 -334 -352 -86 -22 -252 -22 -344 1 -134 32
-257 110 -312 198 -38 60 -58 150 -43 196 41 126 198 227 406 262 81 13 230
11 311 -5z"/>
<path d="M23106 31944 c-133 -32 -236 -115 -277 -223 -17 -46 -20 -72 -17
-151 3 -81 8 -105 36 -163 64 -138 212 -246 407 -299 106 -28 345 -31 448 -5
134 34 215 75 289 147 94 93 123 156 123 270 0 76 -3 91 -30 139 -78 141 -259
230 -579 286 -110 19 -320 18 -400 -1z m519 -59 c72 -19 171 -69 167 -85 -1
-6 2 -9 7 -5 14 8 88 -61 116 -109 72 -123 38 -237 -87 -298 -176 -86 -450
-48 -599 84 -38 34 -89 118 -89 147 0 45 45 125 95 169 108 95 255 131 390 97z"/>
<path d="M8037 31754 c-106 -108 -162 -250 -155 -393 10 -183 112 -289 343
-356 329 -95 786 -6 1043 203 96 78 137 134 172 237 40 117 21 233 -50 302
-31 30 -125 71 -136 60 -3 -2 6 -22 21 -42 14 -21 30 -54 36 -74 62 -207 -363
-390 -907 -391 -194 0 -273 31 -315 125 -24 51 -25 186 -3 291 8 42 14 80 12
85 -2 6 -29 -16 -61 -47z"/>
<path d="M27172 31769 c-122 -81 -219 -222 -243 -351 -31 -168 72 -334 268
-435 156 -81 292 -107 508 -100 182 6 281 28 412 93 153 76 247 191 274 334
10 56 9 74 -5 120 -18 60 -33 82 -87 123 -49 37 -59 35 -43 -10 27 -78 8 -170
-47 -220 -43 -38 -129 -75 -227 -95 -170 -35 -497 -13 -657 43 -186 67 -209
148 -119 422 19 60 34 111 31 113 -2 3 -32 -14 -65 -37z"/>
<path d="M28950 29233 c-258 -18 -480 -103 -614 -237 -79 -79 -117 -145 -143
-250 -19 -80 -11 -139 31 -233 97 -210 429 -347 801 -330 376 17 671 159 776
372 46 94 46 155 -3 256 -120 254 -506 446 -848 422z m561 -337 c92 -17 153
-42 203 -86 102 -90 104 -212 4 -312 -113 -113 -385 -175 -651 -149 -261 25
-444 90 -544 193 -52 53 -76 108 -64 141 21 54 123 119 246 155 195 58 630 89
806 58z"/>
<path d="M19905 29084 c-150 -34 -243 -101 -301 -219 -34 -69 -36 -79 -31
-134 32 -301 350 -488 921 -542 262 -24 638 2 804 57 147 49 295 155 333 239
42 93 10 209 -79 283 -178 148 -313 186 -1042 293 -255 38 -498 47 -605 23z
m943 -109 c222 -42 446 -150 566 -272 88 -89 80 -153 -24 -205 -263 -131 -882
-82 -1245 99 -87 44 -235 139 -235 152 0 20 89 85 175 126 237 114 503 149
763 100z"/>
<path d="M15695 29080 c-322 -37 -593 -155 -712 -312 -54 -70 -70 -104 -89
-184 -14 -63 -14 -70 5 -133 76 -250 362 -396 820 -417 220 -11 490 24 656 83
100 36 271 124 335 172 179 134 187 302 21 470 -134 136 -385 258 -633 306
-101 20 -294 27 -403 15z m820 -339 c135 -28 243 -90 281 -162 44 -86 -18
-203 -148 -277 -126 -72 -299 -105 -543 -105 -295 0 -578 53 -773 146 -82 39
-172 123 -172 160 0 62 113 135 271 176 92 24 406 69 559 81 166 13 417 4 525
-19z"/>
<path d="M6903 28998 c-106 -108 -163 -241 -163 -379 0 -154 67 -257 213 -329
142 -70 213 -84 432 -84 166 0 202 3 285 23 240 59 416 152 537 284 104 113
148 296 95 402 -30 62 -94 112 -164 129 -34 8 -35 3 -4 -37 60 -79 57 -172 -8
-240 -36 -38 -142 -107 -164 -107 -7 0 -20 16 -28 35 -8 20 -27 64 -43 98 -15
34 -38 90 -51 125 -12 34 -26 64 -30 67 -9 5 -319 -11 -465 -25 -186 -18 -316
-39 -361 -60 -52 -22 -52 -21 -29 75 23 95 20 96 -52 23z"/>
<path d="M24941 26679 c-141 -24 -268 -88 -367 -186 -238 -237 -195 -664 89
-879 175 -133 405 -184 599 -135 333 85 538 409 463 730 -39 163 -168 323
-325 400 -139 68 -310 94 -459 70z m354 -69 c139 -48 242 -167 274 -318 44
-210 -59 -442 -234 -527 -185 -91 -406 -26 -503 148 -51 90 -66 152 -66 262 2
191 82 342 224 419 90 49 193 55 305 16z"/>
<path d="M11962 26603 c-20 -4 -18 -7 25 -36 63 -43 85 -76 91 -137 6 -63 -14
-112 -79 -195 -109 -139 -431 -366 -498 -350 -26 6 -169 58 -206 75 -11 5 -75
32 -143 59 l-123 50 -24 -25 c-13 -14 -33 -44 -44 -66 l-20 -40 -10 38 c-5 22
-18 72 -27 113 -15 68 -18 73 -30 56 -26 -35 -55 -127 -66 -208 -26 -194 53
-372 196 -442 163 -80 493 -32 724 104 29 17 55 31 58 31 2 0 37 24 77 54 170
126 336 330 378 466 21 67 27 188 14 251 -10 44 -41 108 -69 137 -45 51 -151
81 -224 65z"/>
<path d="M29680 25489 c-68 -47 -138 -117 -182 -184 -234 -357 96 -715 662
-715 412 0 710 187 728 456 5 84 -8 132 -51 180 -28 33 -84 70 -92 62 -2 -2 2
-22 10 -43 53 -150 -60 -271 -289 -310 -176 -30 -492 -8 -642 45 -115 40 -174
107 -174 197 0 46 27 156 64 262 14 41 26 76 26 78 0 9 -19 0 -60 -28z"/>
<path d="M5671 25368 c-114 -114 -167 -246 -159 -398 6 -109 37 -180 111 -246
109 -99 272 -146 507 -146 216 0 393 35 575 114 68 30 207 117 220 138 4 6 12
7 18 4 7 -4 9 -4 5 1 -4 4 11 28 33 52 105 115 145 302 88 414 -32 64 -118
119 -185 119 -15 0 -14 -4 9 -27 14 -16 33 -45 42 -66 15 -36 15 -38 -2 -29
-32 18 -215 51 -333 62 -149 13 -470 13 -585 0 -120 -14 -219 -37 -265 -60
l-37 -19 8 43 c4 23 11 55 14 69 10 39 -5 33 -64 -25z"/>
<path d="M15262 24736 c-162 -40 -337 -187 -423 -358 -54 -106 -73 -199 -73
-338 2 -188 48 -330 152 -469 107 -141 281 -224 432 -206 283 35 481 272 520
621 22 205 -35 443 -135 562 -15 18 -23 37 -19 43 4 7 3 9 -3 6 -6 -4 -19 3
-29 14 -33 37 -134 99 -195 119 -66 23 -148 25 -227 6z"/>
<path d="M21183 24735 c-102 -23 -198 -79 -289 -170 -137 -136 -209 -289 -221
-469 -19 -291 122 -573 341 -681 102 -51 182 -63 283 -43 115 23 185 60 274
148 63 62 85 92 122 170 71 147 82 198 81 385 0 121 -4 176 -17 225 -84 306
-328 491 -574 435z m253 -65 c72 -36 126 -102 162 -198 20 -55 26 -91 30 -199
2 -73 3 -133 1 -133 -2 0 -134 14 -294 30 -159 16 -296 30 -304 30 -28 0 14
243 59 336 71 146 213 201 346 134z"/>
</g>
</svg>
